<?xml version="1.0" encoding="UTF-8" standalone="no"?>
<!-- Created with Inkscape (http://www.inkscape.org/) -->

<svg
   xmlns:dc="http://purl.org/dc/elements/1.1/"
   xmlns:cc="http://creativecommons.org/ns#"
   xmlns:rdf="http://www.w3.org/1999/02/22-rdf-syntax-ns#"
   xmlns:svg="http://www.w3.org/2000/svg"
   xmlns="http://www.w3.org/2000/svg"
   xmlns:sodipodi="http://sodipodi.sourceforge.net/DTD/sodipodi-0.dtd"
   xmlns:inkscape="http://www.inkscape.org/namespaces/inkscape"
   id="svg5172"
   version="1.1"
   inkscape:version="0.91 r13725"
   width="800"
   height="800">
  <metadata
     id="metadata5178">
    <rdf:RDF>
      <cc:Work
         rdf:about="">
        <dc:format>image/svg+xml</dc:format>
        <dc:type
           rdf:resource="http://purl.org/dc/dcmitype/StillImage" />
      </cc:Work>
    </rdf:RDF>
  </metadata>
  <defs
     id="defs5176" />
  <sodipodi:namedview
     pagecolor="#ffffff"
     bordercolor="#666666"
     borderopacity="1"
     objecttolerance="10"
     gridtolerance="10"
     guidetolerance="10"
     inkscape:pageopacity="0"
     inkscape:pageshadow="2"
     inkscape:window-width="640"
     inkscape:window-height="480"
     id="namedview5174" />
  <inkscape:clipboard
     style="color:#000000;clip-rule:nonzero;display:inline;overflow:visible;visibility:visible;opacity:1;isolation:auto;mix-blend-mode:normal;color-interpolation:sRGB;color-interpolation-filters:linearRGB;solid-color:#000000;solid-opacity:1;fill:#ffffff;fill-opacity:1;fill-rule:nonzero;stroke:none;stroke-width:1;stroke-linecap:square;stroke-linejoin:miter;stroke-miterlimit:4;stroke-dasharray:none;stroke-dashoffset:0;stroke-opacity:1;filter-blend-mode:normal;filter-gaussianBlur-deviation:0;color-rendering:auto;image-rendering:auto;shape-rendering:auto;text-rendering:auto;enable-background:accumulate"
     min="11994.286,5206.6202"
     max="12794.286,6006.6202" />
  <path
     inkscape:connector-curvature="0"
     id="path4614-3-4"
     d="M 400,0 A 400,400 0 0 0 0,400 400,400 0 0 0 400,800 400,400 0 0 0 800,400 400,400 0 0 0 400,0 Z M 350.019,53.9394 99.617,578.8789 A 350,350 0 0 1 88.076,558.7597 350,350 0 0 1 73.785,526.8262 350,350 0 0 1 62.753,493.625 350,350 0 0 1 55.091,459.4883 350,350 0 0 1 50.875,424.7578 350,350 0 0 1 50,400 a 350,350 0 0 1 1.748,-34.9414 350,350 0 0 1 5.228,-34.5918 350,350 0 0 1 8.654,-33.8985 350,350 0 0 1 11.997,-32.8632 350,350 0 0 1 15.218,-31.5039 350,350 0 0 1 18.285,-29.8262 350,350 0 0 1 21.174,-27.8496 350,350 0 0 1 23.848,-25.5996 350,350 0 0 1 26.283,-23.0899 350,350 0 0 1 28.457,-20.3496 350,350 0 0 1 30.348,-17.4082 350,350 0 0 1 31.933,-14.291 350,350 0 0 1 33.202,-11.0313 350,350 0 0 1 34.134,-7.6621 350,350 0 0 1 9.51,-1.1543 z m 99.924,0.078 a 350,350 0 0 1 19.59,2.9589 350,350 0 0 1 33.898,8.6563 350,350 0 0 1 32.864,11.9961 350,350 0 0 1 31.503,15.2187 350,350 0 0 1 29.825,18.2852 350,350 0 0 1 27.851,21.1738 350,350 0 0 1 25.6,23.8477 350,350 0 0 1 23.09,26.2832 350,350 0 0 1 20.349,28.457 350,350 0 0 1 17.408,30.3477 350,350 0 0 1 14.291,31.9336 350,350 0 0 1 11.032,33.2011 350,350 0 0 1 7.662,34.1348 350,350 0 0 1 4.217,34.7305 350,350 0 0 1 0.877,24.7578 350,350 0 0 1 -1.75,34.9433 350,350 0 0 1 -5.229,34.5918 350,350 0 0 1 -8.654,33.8985 350,350 0 0 1 -11.996,32.8633 350,350 0 0 1 -15.219,31.5019 350,350 0 0 1 -6.779,11.0586 L 449.943,54.0174 Z M 400,65.4529 606.427,498.076 400,274.1365 193.574,498.076 400,65.4529 Z M 400,348.531 571.832,534.3084 400,388.6013 228.168,534.3103 400,348.531 Z M 400,454.9373 537.404,570.6834 400,508.1267 262.597,570.6834 400,454.9373 Z m 0,108.4707 226.839,102.6074 a 350,350 0 0 1 -9.277,8.1504 350,350 0 0 1 -28.457,20.3496 350,350 0 0 1 -30.348,17.4082 350,350 0 0 1 -31.933,14.291 350,350 0 0 1 -33.201,11.0313 350,350 0 0 1 -34.135,7.6621 350,350 0 0 1 -34.731,4.2148 350,350 0 0 1 -24.757,0.877 350,350 0 0 1 -34.944,-1.7481 350,350 0 0 1 -34.592,-5.2285 350,350 0 0 1 -33.898,-8.6543 350,350 0 0 1 -32.863,-11.9961 350,350 0 0 1 -31.504,-15.2187 350,350 0 0 1 -29.824,-18.2852 350,350 0 0 1 -27.852,-21.1738 350,350 0 0 1 -1.658,-1.5449 L 400,563.408 Z"
     style="opacity:1;fill:#ffffff;fill-opacity:1;stroke:none;stroke-width:1;stroke-linecap:square;stroke-linejoin:miter;stroke-miterlimit:4;stroke-dasharray:none;stroke-dashoffset:0;stroke-opacity:1" />
</svg>
